# xmcd CD database file
#
# Track frame offsets:
#	150
#	11825
#	28255
#	41414
#	52179
#	67376
#	82543
#	100443
#	119287
#	133872
#	154599
#	170077
#	185653
#	201435
#	216835
#	236452
#	251572
#	269114
#	285184
#	302662
#
# Disc length: 4322 seconds
#
# Revision: 2
# Processed by: cddbd v1.5.2PL0 Copyright (c) Steve Scherf et al.
# Submitted via: CDex 1.51
#
DISCID=2e10e014
DTITLE=Eddie Rabbitt - "Variations" - "Loveline" - 2 LP's on 1 CD
DYEAR=2006
DGENRE=Country
TTITLE0=Hearts On Fire
TTITLE1=The Room At The Top Of The Stairs
TTITLE2=Crossin' The Mississippi
TTITLE3=Plain As The Pain On My Face
TTITLE4=Hurtin' For You
TTITLE5=You Don't Love Me Anymore
TTITLE6=Kentucky Rain
TTITLE7=I Just Want To Love You
TTITLE8=Caroline
TTITLE9=Song Of Ireland
TTITLE10=Pour Me Another Tequila
TTITLE11=Gone Too Far
TTITLE12=Loveline
TTITLE13=One And Only One
TTITLE14=Suspicions
TTITLE15=So Fine
TTITLE16=I Will Never Let You Go Again
TTITLE17=Amazing Love
TTITLE18=It's Always Like The First Time
TTITLE19=I Don't Wanna Make Love (With Anyone Else But You)
EXTD=YEAR: 2006
EXTT0=
EXTT1=
EXTT2=
EXTT3=
EXTT4=
EXTT5=
EXTT6=
EXTT7=
EXTT8=
EXTT9=
EXTT10=
EXTT11=
EXTT12=
EXTT13=
EXTT14=
EXTT15=
EXTT16=
EXTT17=
EXTT18=
EXTT19=
PLAYORDER=
